<?xml version="1.0" standalone="no"?>
<!DOCTYPE svg PUBLIC "-//W3C//DTD SVG 20010904//EN"
 "http://www.w3.org/TR/2001/REC-SVG-20010904/DTD/svg10.dtd">
<svg version="1.0" xmlns="http://www.w3.org/2000/svg"
 width="336.000000pt" height="336.000000pt" viewBox="0 0 336.000000 336.000000"
 preserveAspectRatio="xMidYMid meet">
<metadata>
Created by potrace 1.14, written by Peter Selinger 2001-2017
</metadata>
<g transform="translate(0.000000,336.000000) scale(0.100000,-0.100000)"
fill="#000000" stroke="none">
<path d="M39 3067 c-40 -30 -39 -12 -39 -1387 0 -1227 1 -1334 17 -1360 9 -16
26 -31 37 -34 12 -3 744 -6 1628 -6 1157 0 1614 3 1631 11 14 6 30 22 36 36 8
17 11 401 11 1354 0 1226 -1 1333 -17 1359 -9 16 -26 31 -37 34 -12 3 -748 6
-1636 6 -1254 -1 -1619 -3 -1631 -13z"/>
</g>
</svg>
